<svg xmlns="http://www.w3.org/2000/svg" width="213.601" height="76.99"><g data-name="グループ 11"><g data-name="グループ 6"><g fill="#8e8e8e" data-name="グループ 5"><path d="M213.601 31.045v-9.87a21.178 21.178 0 0 0-42.356 0v34.637a21.178 21.178 0 1 0 42.356 0V32.584h-29v2.915h26.084v20.313a18.264 18.264 0 1 1-36.527 0V21.176a18.264 18.264 0 0 1 36.527 0v9.87Z" data-name="パス 1824"/><path d="M204.694 31.045v-9.87a12.272 12.272 0 0 0-24.544 0v18.777h21.634v15.86a9.36 9.36 0 1 1-18.719 0v-9.87h-2.912v9.87a12.272 12.272 0 1 0 24.544 0V37.037h-21.635V21.175a9.36 9.36 0 0 1 18.719 0v9.87Z" data-name="パス 1825"/><path d="M209.148 31.045v-9.869a16.726 16.726 0 0 0-33.451 0v34.636a16.726 16.726 0 0 0 33.451 0V37.037h-2.914v18.775a13.812 13.812 0 0 1-27.624 0V44.404h21.29v-2.915h-21.289V21.176a13.812 13.812 0 0 1 27.624 0v9.87Z" data-name="パス 1826"/><path d="M1.338 21.782v-7.137H0v-1.619h4.433v1.619H3.094v7.138Z" data-name="パス 1827"/><path d="M7.01 21.782v-8.756h1.731v3.239h1.955v-3.239h1.745v8.757h-1.746v-3.81H8.741v3.809Z" data-name="パス 1828"/><path d="M15.28 21.782v-8.756h3.683v1.619h-1.988v1.769h1.8v1.609h-1.8v2.05h1.992v1.71Z" data-name="パス 1829"/><path d="M25.366 21.477v-1.818a2.7 2.7 0 0 0 .647.432 1.6 1.6 0 0 0 .642.144 1 1 0 0 0 .7-.234.82.82 0 0 0 .255-.637 1.56 1.56 0 0 0-.691-1.08 9 9 0 0 1-.288-.252 5 5 0 0 1-1.1-1.292 2.8 2.8 0 0 1-.3-1.3 2.6 2.6 0 0 1 .639-1.832 2.16 2.16 0 0 1 1.671-.7 2.5 2.5 0 0 1 .722.105 3.7 3.7 0 0 1 .753.326v1.548a6 6 0 0 0-.717-.306 1.5 1.5 0 0 0-.453-.085.82.82 0 0 0-.858.858 1.17 1.17 0 0 0 .18.627 4.7 4.7 0 0 0 .841.861 4.8 4.8 0 0 1 1.133 1.256 2.7 2.7 0 0 1 .252 1.21 2.6 2.6 0 0 1-.676 1.887 2.45 2.45 0 0 1-1.838.692 3 3 0 0 1-.819-.1 2.4 2.4 0 0 1-.692-.311" data-name="パス 1830"/><path d="M33.195 21.782v-7.137h-1.342v-1.619h4.432v1.619h-1.332v7.138Z" data-name="パス 1831"/><path d="m38.522 21.782 2.04-8.757h1.833l1.943 8.757h-1.746l-.293-1.537H40.54l-.27 1.537Zm2.334-2.9h1.163q-.179-.917-.323-1.922t-.252-2.121q-.132.984-.28 1.994t-.309 2.049" data-name="パス 1832"/><path d="M49.227 16.833h3.257q-.001.067.006.2c.007.133.007.157.007.2a6.2 6.2 0 0 1-.807 3.424 2.618 2.618 0 0 1-4.423.029 5.8 5.8 0 0 1-.81-3.28 5.7 5.7 0 0 1 .839-3.3 2.65 2.65 0 0 1 2.292-1.2 2.5 2.5 0 0 1 1.669.577 3.3 3.3 0 0 1 1 1.674l-1.571.725a1.9 1.9 0 0 0-.386-.977.95.95 0 0 0-.753-.324 1.08 1.08 0 0 0-1.029.68 5.25 5.25 0 0 0-.327 2.144 5.1 5.1 0 0 0 .345 2.118 1.09 1.09 0 0 0 1.012.719 1.03 1.03 0 0 0 .908-.489 2.46 2.46 0 0 0 .327-1.375h-1.556Z" data-name="パス 1833"/><path d="M55.825 21.782v-8.756h3.682v1.619h-1.991v1.769h1.8v1.609h-1.8v2.05h1.991v1.71Z" data-name="パス 1834"/><path d="M5.533 65.679V36.158H.001v-6.7h18.332v6.7h-5.532v29.521Z" data-name="パス 1835"/><path d="M32.154 65.679V29.462h7.145v13.394h8.086V29.462h7.218v36.217h-7.218V49.926h-8.086v15.753Z" data-name="パス 1836"/><path d="M68.427 65.679V29.462h15.23v6.7h-8.236v7.316h7.466v6.648h-7.466v8.484h8.236v7.07Z" data-name="パス 1837"/><path d="M103.01 65.679V36.158h-5.532v-6.7h18.332v6.7h-5.532v29.521Z" data-name="パス 1838"/><path d="m124.101 65.68 8.434-36.219h7.566l8.037 36.219h-7.218l-1.217-6.352h-7.267l-1.116 6.352Zm9.649-11.983h4.812q-.744-3.8-1.339-7.951t-1.041-8.768q-.547 4.068-1.155 8.248t-1.277 8.471" data-name="パス 1839"/></g></g></g></svg>