<svg xmlns="http://www.w3.org/2000/svg" width="157.575" height="56.796"><g data-name="グループ 11"><g data-name="グループ 6"><g fill="#fff" data-name="グループ 5"><path d="M157.574 22.904v-7.281a15.623 15.623 0 0 0-31.246 0v25.551a15.623 15.623 0 1 0 31.246 0V24.039h-21.391v2.15h19.242v14.985a13.474 13.474 0 1 1-26.947 0V15.623a13.474 13.474 0 0 1 26.947 0v7.281Z" data-name="パス 1824"/><path d="M151.005 22.904v-7.281a9.054 9.054 0 0 0-18.107 0v13.851h15.957v11.7a6.905 6.905 0 1 1-13.809 0v-7.281h-2.148v7.281a9.054 9.054 0 1 0 18.107 0v-13.85h-15.959v-11.7a6.905 6.905 0 0 1 13.809 0v7.281Z" data-name="パス 1825"/><path d="M154.29 22.904v-7.281a12.339 12.339 0 0 0-24.677 0v25.551a12.339 12.339 0 0 0 24.677 0v-13.85h-2.154v13.85a10.189 10.189 0 0 1-20.378 0V32.76h15.705v-2.15h-15.701V15.623a10.189 10.189 0 0 1 20.378 0v7.281Z" data-name="パス 1826"/><path d="M.987 16.07v-5.265H0V9.611h3.27v1.194h-.987v5.266Z" data-name="パス 1827"/><path d="M5.171 16.07V9.61h1.274V12h1.442V9.61h1.288v6.46H7.887v-2.81H6.445v2.81Z" data-name="パス 1828"/><path d="M11.272 16.07V9.61h2.717v1.194h-1.47v1.3h1.333v1.187h-1.333v1.512h1.47v1.261Z" data-name="パス 1829"/><path d="M18.713 15.845v-1.341a2 2 0 0 0 .478.319 1.15 1.15 0 0 0 .473.106.73.73 0 0 0 .516-.172.6.6 0 0 0 .188-.47 1.15 1.15 0 0 0-.509-.8 6 6 0 0 1-.213-.186 3.7 3.7 0 0 1-.814-.953 2.04 2.04 0 0 1-.221-.958 1.93 1.93 0 0 1 .471-1.352 1.6 1.6 0 0 1 1.233-.515 1.9 1.9 0 0 1 .533.078 2.7 2.7 0 0 1 .555.24v1.142a5 5 0 0 0-.529-.225 1.1 1.1 0 0 0-.334-.063.6.6 0 0 0-.633.633.87.87 0 0 0 .133.463 3.4 3.4 0 0 0 .62.635 3.5 3.5 0 0 1 .836.926 2 2 0 0 1 .186.892 1.91 1.91 0 0 1-.5 1.392 1.8 1.8 0 0 1-1.356.51 2.3 2.3 0 0 1-.6-.076 1.8 1.8 0 0 1-.51-.23" data-name="パス 1830"/><path d="M24.489 16.07v-5.265h-.992V9.611h3.269v1.194h-.986v5.266Z" data-name="パス 1831"/><path d="m28.418 16.071 1.5-6.46h1.35l1.434 6.46h-1.288l-.212-1.133h-1.3l-.2 1.134Zm1.722-2.133h.858q-.132-.676-.238-1.418t-.186-1.564q-.1.726-.206 1.471t-.228 1.511" data-name="パス 1832"/><path d="M36.317 12.42h2.4v.149c0 .067.005.116.005.148a4.58 4.58 0 0 1-.6 2.526 1.93 1.93 0 0 1-3.263.021 4.3 4.3 0 0 1-.6-2.42 4.2 4.2 0 0 1 .619-2.431 1.96 1.96 0 0 1 1.691-.887 1.85 1.85 0 0 1 1.232.425 2.44 2.44 0 0 1 .741 1.235l-1.159.535a1.4 1.4 0 0 0-.285-.721.7.7 0 0 0-.555-.239.8.8 0 0 0-.759.5 3.9 3.9 0 0 0-.241 1.581 3.75 3.75 0 0 0 .254 1.562.805.805 0 0 0 .747.531.76.76 0 0 0 .67-.361 1.8 1.8 0 0 0 .241-1.015h-1.151Z" data-name="パス 1833"/><path d="M41.182 16.07V9.61h2.716v1.194h-1.469v1.3h1.332v1.187h-1.332v1.512h1.469v1.261Z" data-name="パス 1834"/><path d="M4.082 48.454V26.676H.001v-4.94h13.524v4.94H9.444v21.778Z" data-name="パス 1835"/><path d="M23.721 48.454V21.736h5.271v9.881h5.965v-9.881h5.325v26.718h-5.325V36.833h-5.965v11.621Z" data-name="パス 1836"/><path d="M50.479 48.454V21.736h11.236v4.94h-6.076v5.4h5.508v4.9h-5.508v6.259h6.076v5.216Z" data-name="パス 1837"/><path d="M75.989 48.454V26.676h-4.081v-4.94h13.524v4.94h-4.081v21.778Z" data-name="パス 1838"/><path d="m91.55 48.454 6.222-26.719h5.581l5.929 26.719h-5.32l-.9-4.686h-5.361l-.823 4.686Zm7.118-8.84h3.55q-.549-2.8-.988-5.865t-.768-6.468q-.4 3-.852 6.084t-.942 6.249" data-name="パス 1839"/></g></g></g></svg>