<svg xmlns="http://www.w3.org/2000/svg" width="107.806" height="27.398"><path fill="#707070" d="M0 27.17V.19h7.41v20.52h12.236v6.46Zm35 .228a13.16 13.16 0 0 1-5.588-1.159 13.5 13.5 0 0 1-4.313-3.116 14.1 14.1 0 0 1-2.774-4.408 13.7 13.7 0 0 1-.969-5.073 13.1 13.1 0 0 1 1.026-5.13 14.2 14.2 0 0 1 2.869-4.351 13.4 13.4 0 0 1 4.37-3.021A13.7 13.7 0 0 1 35.15.04a13.16 13.16 0 0 1 5.586 1.159 13.2 13.2 0 0 1 4.294 3.135 14.5 14.5 0 0 1 2.752 4.425 13.6 13.6 0 0 1 .969 5.035 13.2 13.2 0 0 1-1.007 5.092 13.9 13.9 0 0 1-2.85 4.351 13.7 13.7 0 0 1-4.351 3.04 13.44 13.44 0 0 1-5.545 1.121Zm-6.118-13.68a9.2 9.2 0 0 0 .38 2.641 7.1 7.1 0 0 0 1.14 2.28 5.5 5.5 0 0 0 1.919 1.6 6 6 0 0 0 2.755.589 6 6 0 0 0 2.774-.608 5.3 5.3 0 0 0 1.919-1.653 7.5 7.5 0 0 0 1.1-2.318 9.5 9.5 0 0 0 .361-2.6 9 9 0 0 0-.38-2.622 7.2 7.2 0 0 0-1.14-2.261 5.25 5.25 0 0 0-1.938-1.577 6.2 6.2 0 0 0-2.736-.57 5.86 5.86 0 0 0-2.755.608 5.7 5.7 0 0 0-1.919 1.615 6.9 6.9 0 0 0-1.121 2.28 9.5 9.5 0 0 0-.359 2.596M64.524 27.36a13.6 13.6 0 0 1-5-.931 12.3 12.3 0 0 1-4.2-2.736 12.9 12.9 0 0 1-2.869-4.37 15.5 15.5 0 0 1-1.045-5.871 13 13 0 0 1 1.072-5.282 13.5 13.5 0 0 1 2.945-4.275 13.5 13.5 0 0 1 4.389-2.869A14.2 14.2 0 0 1 65.25 0a13.85 13.85 0 0 1 6.612 1.577A10.3 10.3 0 0 1 76.27 5.89l-5.51 4.218a6.2 6.2 0 0 0-2.394-2.565 6.4 6.4 0 0 0-3.384-.973 5.5 5.5 0 0 0-2.432.532 5.9 5.9 0 0 0-1.919 1.482 6.65 6.65 0 0 0-1.254 2.261 9 9 0 0 0-.437 2.869 8.6 8.6 0 0 0 .456 2.888 6.7 6.7 0 0 0 1.273 2.223 5.7 5.7 0 0 0 1.955 1.445 6.1 6.1 0 0 0 2.546.513 7.03 7.03 0 0 0 3.42-.893 10 10 0 0 0 2.964-2.52v7.22a10.12 10.12 0 0 1-7.03 2.77m6.65-9.234h-4.978v-5.32h11.1V27.17h-6.122Zm22.876 9.272a13.16 13.16 0 0 1-5.586-1.159 13.5 13.5 0 0 1-4.313-3.116 14.1 14.1 0 0 1-2.774-4.408 13.7 13.7 0 0 1-.969-5.073 13.1 13.1 0 0 1 1.026-5.13 14.2 14.2 0 0 1 2.869-4.351 13.4 13.4 0 0 1 4.37-3.021 13.7 13.7 0 0 1 5.529-1.1 13.16 13.16 0 0 1 5.586 1.159 13.2 13.2 0 0 1 4.294 3.135 14.5 14.5 0 0 1 2.755 4.427 13.6 13.6 0 0 1 .969 5.035 13.2 13.2 0 0 1-1.007 5.092 13.9 13.9 0 0 1-2.85 4.351 13.7 13.7 0 0 1-4.351 3.04 13.44 13.44 0 0 1-5.548 1.119m-6.118-13.68a9.2 9.2 0 0 0 .38 2.641 7.1 7.1 0 0 0 1.14 2.28 5.5 5.5 0 0 0 1.919 1.6 6 6 0 0 0 2.755.589 6 6 0 0 0 2.774-.608 5.3 5.3 0 0 0 1.919-1.653 7.5 7.5 0 0 0 1.1-2.318 9.5 9.5 0 0 0 .361-2.6 9 9 0 0 0-.38-2.622 7.2 7.2 0 0 0-1.14-2.261 5.25 5.25 0 0 0-1.938-1.577 6.2 6.2 0 0 0-2.736-.57 5.86 5.86 0 0 0-2.755.608 5.7 5.7 0 0 0-1.919 1.615 6.9 6.9 0 0 0-1.121 2.28 9.5 9.5 0 0 0-.359 2.596"/></svg>