<svg xmlns="http://www.w3.org/2000/svg" width="158.054" height="52.295"><g fill="#8e8e8e" data-name="グループ 31"><path d="m9.525 24.654.44 3.1a12.2 12.2 0 0 1-4.56.15 3.56 3.56 0 0 1-2.656-2.879c-.191-1.182-.229-5.121-.229-5.121v-9.5H0V7.735h2.52V.582h3.5v7.153h3.41v2.672H6.023v10.618s-.023 2.77.367 3.183c0 0 .633.951 3.134.446" data-name="パス 1874"/><path d="m14.477 46.885.207 1.435a5.8 5.8 0 0 1-2.139.083 1.68 1.68 0 0 1-1.235-1.36c-.083-.545-.114-2.394-.114-2.394v-4.445h-1.177v-1.247h1.178v-3.353h1.64v3.353h1.592v1.247h-1.592v4.981a4.8 4.8 0 0 0 .176 1.484s.29.45 1.468.215" data-name="パス 1875"/><path d="M28.481 10.172a10.45 10.45 0 0 1 .849 4.673v12.929h-3.5V15.068a5.86 5.86 0 0 0-.671-3.029 3.53 3.53 0 0 0-3.386-1.748 5.57 5.57 0 0 0-3.783 1.377c-1.152.977-1.636 2.731-1.636 5.425v10.68h-3.525V0h3.524v9.926a7.06 7.06 0 0 1 4.126-2.52s3.874-.854 6.666 1.233a5.8 5.8 0 0 1 1.336 1.533" data-name="パス 1876"/><path d="M35.902 9.991a11.7 11.7 0 0 0-2.534 7.933c0 3.24.876 5.766 2.623 7.55a9.02 9.02 0 0 0 6.419 2.636 11.2 11.2 0 0 0 2.778-.221 9 9 0 0 0 4.108-1.969 6.5 6.5 0 0 0 1.62-2 11 11 0 0 0 .971-2.313l-3.7-.466a5.8 5.8 0 0 1-1.312 2.33 4.96 4.96 0 0 1-4.221 1.752 5.6 5.6 0 0 1-4.053-1.958 6.86 6.86 0 0 1-1.591-4.54h14.937a16 16 0 0 0-.391-4.489 8.5 8.5 0 0 0-1.476-3.432 7.9 7.9 0 0 0-2.97-2.635 8.6 8.6 0 0 0-4.181-1 8.92 8.92 0 0 0-7.031 2.824m2.889 1.748a5.23 5.23 0 0 1 3.937-1.65 4.95 4.95 0 0 1 4.612 2.512 7.6 7.6 0 0 1 .821 3.226H37.11a5.85 5.85 0 0 1 1.679-4.087" data-name="パス 1877"/><path d="M141.991 9.991a11.69 11.69 0 0 0-2.532 7.933c0 3.24.882 5.766 2.628 7.55a9 9 0 0 0 6.411 2.636 11.3 11.3 0 0 0 2.784-.221 9 9 0 0 0 4.11-1.969 6.6 6.6 0 0 0 1.61-2 10.5 10.5 0 0 0 .967-2.313l-3.686-.466a5.8 5.8 0 0 1-1.318 2.33 4.97 4.97 0 0 1-4.217 1.752 5.6 5.6 0 0 1-4.051-1.958 6.86 6.86 0 0 1-1.587-4.541h14.924a16.2 16.2 0 0 0-.377-4.489 8.6 8.6 0 0 0-1.484-3.431 8 8 0 0 0-2.97-2.636 8.6 8.6 0 0 0-4.183-1 8.92 8.92 0 0 0-7.031 2.824m2.9 1.748a5.2 5.2 0 0 1 3.927-1.65 4.92 4.92 0 0 1 4.608 2.512 7.4 7.4 0 0 1 .835 3.226h-11.053a5.79 5.79 0 0 1 1.685-4.087" data-name="パス 1878"/><path d="M109.468 40.192a5.57 5.57 0 0 0-1.21 3.812 4.9 4.9 0 0 0 1.263 3.621 4.32 4.32 0 0 0 3.072 1.265 4.8 4.8 0 0 0 1.334-.12 4.14 4.14 0 0 0 1.977-.937 3.1 3.1 0 0 0 .77-.955 4.7 4.7 0 0 0 .462-1.113l-1.77-.215a2.8 2.8 0 0 1-.629 1.113 2.32 2.32 0 0 1-2.023.839 2.67 2.67 0 0 1-1.942-.935 3.38 3.38 0 0 1-.772-2.184h7.173a7.6 7.6 0 0 0-.182-2.159 4.3 4.3 0 0 0-.716-1.658 3.85 3.85 0 0 0-1.414-1.249 4.2 4.2 0 0 0-2.017-.483 4.29 4.29 0 0 0-3.378 1.358m1.395.838a2.52 2.52 0 0 1 1.883-.8 2.37 2.37 0 0 1 2.212 1.21 3.6 3.6 0 0 1 .4 1.551h-5.295a2.79 2.79 0 0 1 .8-1.961" data-name="パス 1879"/><path d="M95.228 40.192a5.57 5.57 0 0 0-1.223 3.812 4.96 4.96 0 0 0 1.263 3.621 4.36 4.36 0 0 0 3.078 1.265 4.8 4.8 0 0 0 1.328-.12 4.07 4.07 0 0 0 1.975-.937 3.1 3.1 0 0 0 .781-.955 5.2 5.2 0 0 0 .468-1.113l-1.774-.215a2.76 2.76 0 0 1-.633 1.113 2.35 2.35 0 0 1-2.019.839 2.7 2.7 0 0 1-1.952-.935 3.3 3.3 0 0 1-.76-2.184h7.168a7.8 7.8 0 0 0-.185-2.159 4.3 4.3 0 0 0-.712-1.658 3.9 3.9 0 0 0-1.425-1.251 4.14 4.14 0 0 0-2.005-.483 4.27 4.27 0 0 0-3.374 1.358m1.387.837a2.52 2.52 0 0 1 1.89-.8 2.38 2.38 0 0 1 2.208 1.21 3.5 3.5 0 0 1 .4 1.551h-5.3a2.84 2.84 0 0 1 .809-1.961" data-name="パス 1880"/><path d="M69.839 40.192a5.56 5.56 0 0 0-1.221 3.812 4.94 4.94 0 0 0 1.267 3.621 4.32 4.32 0 0 0 3.072 1.265 4.9 4.9 0 0 0 1.34-.12 4.17 4.17 0 0 0 1.973-.937 3.3 3.3 0 0 0 .77-.955 5 5 0 0 0 .474-1.113l-1.78-.215a2.85 2.85 0 0 1-.631 1.113 2.34 2.34 0 0 1-2.019.839 2.69 2.69 0 0 1-1.952-.935 3.33 3.33 0 0 1-.762-2.184h7.171a7.7 7.7 0 0 0-.189-2.159 4.14 4.14 0 0 0-.712-1.658 3.8 3.8 0 0 0-1.421-1.251 4.15 4.15 0 0 0-2.005-.483 4.27 4.27 0 0 0-3.376 1.358m1.389.837a2.52 2.52 0 0 1 1.888-.8 2.37 2.37 0 0 1 2.21 1.21 3.6 3.6 0 0 1 .4 1.551h-5.309a2.78 2.78 0 0 1 .811-1.961" data-name="パス 1881"/><path d="M30.058 40.192a5.58 5.58 0 0 0-1.214 3.812 5 5 0 0 0 1.257 3.621 4.35 4.35 0 0 0 3.08 1.265 4.9 4.9 0 0 0 1.338-.12 4.13 4.13 0 0 0 1.969-.937 3.05 3.05 0 0 0 .768-.955 4.5 4.5 0 0 0 .472-1.113l-1.768-.215a2.74 2.74 0 0 1-.635 1.113 2.32 2.32 0 0 1-2.013.839 2.7 2.7 0 0 1-1.961-.935 3.36 3.36 0 0 1-.756-2.184h7.162a7.6 7.6 0 0 0-.178-2.159 4.2 4.2 0 0 0-.716-1.658 3.84 3.84 0 0 0-1.417-1.251 4.15 4.15 0 0 0-2.005-.483 4.3 4.3 0 0 0-3.382 1.358m1.395.837a2.5 2.5 0 0 1 1.888-.8 2.36 2.36 0 0 1 2.2 1.21 3.5 3.5 0 0 1 .408 1.551h-5.306a2.8 2.8 0 0 1 .809-1.961" data-name="パス 1882"/><path d="M131.844 25.255c0 3.339-.093 3.937-.576 5-.8 1.8-2.364 2.674-5 2.7a5.77 5.77 0 0 1-3.69-.969 3.37 3.37 0 0 1-1.008-2.08l-3.363-.551c-.047 2.51.791 4.183 2.277 5.144a10.9 10.9 0 0 0 5.742 1.5c3.923 0 6.723-1.571 8.14-4.262.756-1.462 1.113-4.312 1.113-6.836V7.643h-3.254v2.567a9.3 9.3 0 0 0-1.965-1.886 7.4 7.4 0 0 0-4.136-1.052 7.72 7.72 0 0 0-6.026 2.7 11.16 11.16 0 0 0-2.586 7.714 11.2 11.2 0 0 0 3.045 8.023 7.52 7.52 0 0 0 5.567 2.038 8.16 8.16 0 0 0 3.609-.791 7.5 7.5 0 0 0 2.111-1.7m-.45-3.611a5.04 5.04 0 0 1-5.03 3.191 4.5 4.5 0 0 1-3.694-1.792 7.8 7.8 0 0 1-1.561-5.01 11.7 11.7 0 0 1 .6-4.4 5.03 5.03 0 0 1 5.018-3.313 4.8 4.8 0 0 1 3.836 1.792 7.73 7.73 0 0 1 1.567 5.3 10 10 0 0 1-.732 4.231" data-name="パス 1883"/><path d="M48.596 38.852h1.723v6.3a2.3 2.3 0 0 0 .318 1.247 1.78 1.78 0 0 0 1.658.724 2.28 2.28 0 0 0 2.263-1.415 5.9 5.9 0 0 0 .326-2.218v-4.638h1.628v9.59H54.98l.018-1.47a3.1 3.1 0 0 1-.781.929 3.44 3.44 0 0 1-2.255.76 3.21 3.21 0 0 1-2.924-1.4 4.5 4.5 0 0 1-.444-2.044Z" data-name="パス 1884"/><path d="M60.513 52.133v-4.608a3.4 3.4 0 0 0 1.091.833 3.7 3.7 0 0 0 1.707.314 3.7 3.7 0 0 0 2.305-.9 5.31 5.31 0 0 0 1.729-4.357 5 5 0 0 0-1.156-3.493 3.66 3.66 0 0 0-2.855-1.255 3.5 3.5 0 0 0-1.8.387 4 4 0 0 0-1.062.789v-1.048h-1.577v13.338Zm.274-6.334a3.67 3.67 0 0 1-.335-1.9 5.4 5.4 0 0 1 .3-2.117 2.45 2.45 0 0 1 2.224-1.835 2.3 2.3 0 0 1 2.309 1.583 5.3 5.3 0 0 1 .33 1.977 4.22 4.22 0 0 1-.756 2.838 2.425 2.425 0 0 1-4.073-.551" data-name="パス 1885"/><path d="M104.784 35.411h1.624v13.235h-1.624z" data-name="長方形 10"/><path d="M25.435 35.411h1.626v13.235h-1.626z" data-name="長方形 11"/><path d="m147.996 39.059-.517 1.6c-1.772-.811-2.433.243-2.433.243a3.97 3.97 0 0 0-.606 2.372v5.125h-1.714v-9.64h1.58v1.308a2.8 2.8 0 0 1 .809-1.07 2.38 2.38 0 0 1 2.252-.237 3.3 3.3 0 0 1 .629.3" data-name="パス 1886"/><path d="m84.638 39.059-.507 1.6c-1.772-.811-2.439.243-2.439.243a4.1 4.1 0 0 0-.608 2.372v5.125h-1.707v-9.64h1.581v1.308a2.8 2.8 0 0 1 .8-1.07 2.39 2.39 0 0 1 2.268-.238 3 3 0 0 1 .614.3" data-name="パス 1887"/><path d="m78.286 13.565 3.282-.434a6.17 6.17 0 0 0-1.985-4.181s-1.78-1.785-6.571-1.717a9.74 9.74 0 0 0-4.837 1.541 5.95 5.95 0 0 0-2.072 4.744 5.01 5.01 0 0 0 3.2 4.428 29.3 29.3 0 0 0 4.4 1.241 23.7 23.7 0 0 1 3.874 1.223 2.046 2.046 0 0 1 1.107 2.447 3.36 3.36 0 0 1-2.834 2.323s-3.086.677-5.03-.73a4.7 4.7 0 0 1-1.817-3.226l-3.481.509a9.2 9.2 0 0 0 1.381 3.538s1.519 2.514 5.9 2.883c0 0 4.728.4 6.956-1.425a6.08 6.08 0 0 0 2.445-6.2s-.43-2.425-4.124-3.641c0 0-3.688-1.111-6.159-1.879 0 0-2.672-.434-2.392-2.571a2.75 2.75 0 0 1 2.3-2.119s3.159-.691 4.912.641a3.78 3.78 0 0 1 1.537 2.6" data-name="パス 1888"/><path d="m7.439 41.761 1.535-.2a2.94 2.94 0 0 0-.925-1.958s-.833-.841-3.09-.8a4.54 4.54 0 0 0-2.267.72 2.83 2.83 0 0 0-.971 2.226 2.34 2.34 0 0 0 1.506 2.072 13 13 0 0 0 2.064.574 10.7 10.7 0 0 1 1.806.582.955.955 0 0 1 .523 1.141 1.59 1.59 0 0 1-1.326 1.091 3.44 3.44 0 0 1-2.36-.348 2.22 2.22 0 0 1-.847-1.512l-1.637.232a4.3 4.3 0 0 0 .653 1.658 3.53 3.53 0 0 0 2.763 1.362s2.214.189 3.256-.675a2.86 2.86 0 0 0 1.156-2.907s-.209-1.131-1.938-1.7c0 0-1.725-.509-2.881-.872 0 0-1.253-.207-1.119-1.216a1.28 1.28 0 0 1 1.077-.991 3.33 3.33 0 0 1 2.3.312 1.8 1.8 0 0 1 .722 1.209" data-name="パス 1889"/><path d="m44.808 41.761 1.533-.2a2.86 2.86 0 0 0-.931-1.958s-.831-.841-3.082-.8a4.5 4.5 0 0 0-2.257.72 2.82 2.82 0 0 0-.975 2.226 2.34 2.34 0 0 0 1.5 2.072 13 13 0 0 0 2.058.574 11 11 0 0 1 1.819.582.956.956 0 0 1 .517 1.141 1.58 1.58 0 0 1-1.332 1.091 3.4 3.4 0 0 1-2.35-.339 2.19 2.19 0 0 1-.852-1.512l-1.632.229a4.2 4.2 0 0 0 .649 1.658 3.53 3.53 0 0 0 2.765 1.362s2.2.189 3.266-.675a2.84 2.84 0 0 0 1.139-2.907s-.2-1.131-1.936-1.7c0 0-1.721-.509-2.881-.872 0 0-1.245-.207-1.119-1.216a1.27 1.27 0 0 1 1.083-.991 3.33 3.33 0 0 1 2.3.312 1.8 1.8 0 0 1 .72 1.216" data-name="パス 1890"/><path d="m90.772 41.761 1.533-.2a2.92 2.92 0 0 0-.933-1.958s-.825-.841-3.068-.8a4.6 4.6 0 0 0-2.275.72 2.8 2.8 0 0 0-.967 2.226 2.34 2.34 0 0 0 1.5 2.072 13 13 0 0 0 2.068.574 11 11 0 0 1 1.815.582.95.95 0 0 1 .509 1.141 1.57 1.57 0 0 1-1.322 1.091 3.44 3.44 0 0 1-2.36-.348 2.19 2.19 0 0 1-.849-1.512l-1.628.229a4.2 4.2 0 0 0 .649 1.658 3.5 3.5 0 0 0 2.759 1.362s2.214.189 3.26-.675a2.85 2.85 0 0 0 1.143-2.907s-.2-1.131-1.93-1.7c0 0-1.723-.509-2.883-.872 0 0-1.251-.207-1.119-1.216a1.28 1.28 0 0 1 1.075-.991 3.35 3.35 0 0 1 2.305.312 1.78 1.78 0 0 1 .718 1.212" data-name="パス 1891"/><path d="M109.506 22.26s-1.448 3.376-6.2 3.11c0 0-2.974.089-3.505-2.48a3.09 3.09 0 0 1 2.21-3.471 27 27 0 0 1 3.925-.671 12.6 12.6 0 0 0 3.6-.689s.363-.231.519.134c.006.466.022.906.026 1.338a7.2 7.2 0 0 1-.576 2.729m5.148 5.523a8.4 8.4 0 0 1-.971-3.457c-.166-1.45-.166-8.621-.166-8.621.147-3.892-.453-5.072-.453-5.072-1.039-3.157-6.32-3.337-6.32-3.337A12.35 12.35 0 0 0 99.69 8.61c-2.79 1.541-3.155 5.052-3.155 5.052l3.38.456c.257-.742.365-1.018.365-1.018a4.07 4.07 0 0 1 3.562-2.769c3.39-.359 4.933.831 4.933.831 1.632.906 1.312 3.647 1.312 3.647v.209a10.5 10.5 0 0 1-2.3.62s-4.572.854-6.137.991a9.4 9.4 0 0 0-4.329 2.119 5.87 5.87 0 0 0-.882 6 5.7 5.7 0 0 0 4.657 3.311s4.983.744 8.118-1.859l.787-.637s.217-.195.426.1a7.8 7.8 0 0 0 .645 2.123Z" data-name="パス 1892"/><path d="M139.314 45.832a2.9 2.9 0 0 1-2.974 1.492s-1.427.034-1.677-1.176a1.48 1.48 0 0 1 1.062-1.668 11.6 11.6 0 0 1 1.869-.316 6 6 0 0 0 1.735-.345.154.154 0 0 1 .241.069c0 .219 0 .442.008.637a3.4 3.4 0 0 1-.266 1.308m2.461 2.647a4 4 0 0 1-.466-1.648c-.075-.7-.075-4.128-.075-4.128a5.7 5.7 0 0 0-.219-2.425c-.5-1.514-3.023-1.61-3.023-1.61a6 6 0 0 0-3.388.633 3.4 3.4 0 0 0-1.508 2.417l1.624.225c.126-.355.178-.489.178-.489a1.9 1.9 0 0 1 1.7-1.318 3.34 3.34 0 0 1 2.36.4c.787.42.643 1.735.643 1.735a.2.2 0 0 0-.016.1 4.3 4.3 0 0 1-1.1.3s-2.186.408-2.944.476a4.6 4.6 0 0 0-2.07 1.026 2.8 2.8 0 0 0-.42 2.865 2.73 2.73 0 0 0 2.23 1.587 5.6 5.6 0 0 0 3.891-.89l.369-.3a.13.13 0 0 1 .2.047 3.7 3.7 0 0 0 .314 1.006Z" data-name="パス 1893"/><path d="m125.256 42.1 1.725-.235a3.69 3.69 0 0 0-2.553-2.944 5.7 5.7 0 0 0-3.9.535s-2.027 1.008-1.969 4.517c0 0-.154 2.922 1.969 4.258a5.09 5.09 0 0 0 4.375.26 4.2 4.2 0 0 0 2.216-3.181l-1.729-.225a2.96 2.96 0 0 1-1.408 2.118 2.43 2.43 0 0 1-2.972-.706 5.35 5.35 0 0 1-.207-5.006 2.55 2.55 0 0 1 2.21-1.233 2.24 2.24 0 0 1 1.823.849 5 5 0 0 1 .416.991" data-name="パス 1894"/><path d="m19.82 46.554 2.64-7.767h1.794c-.233.6-.766 1.942-1.553 4.15-.592 1.658-1.087 3-1.486 4.051a24 24 0 0 1-1.954 4.366 2.4 2.4 0 0 1-2.009.941 3.3 3.3 0 0 1-.521-.026 2.5 2.5 0 0 1-.46-.105l-.314-1.435a5.6 5.6 0 0 0 .937.109 2 2 0 0 0 .33.024.92.92 0 0 0 .6-.235 1.4 1.4 0 0 0 .351-.359 2.1 2.1 0 0 0 .393-.643c.187-.46.322-.951.4-1.166l-3.685-9.662h1.845Z" data-name="パス 1895"/><path d="m93.883 24.654.438 3.1a12.2 12.2 0 0 1-4.564.15 3.56 3.56 0 0 1-2.652-2.875c-.191-1.182-.231-5.121-.231-5.121v-9.5h-2.516V7.735h2.516V.582h3.5v7.153h3.406v2.672h-3.405v10.618s-.018 2.77.375 3.183c0 0 .626.951 3.136.446" data-name="パス 1896"/><path d="m153.234 46.885.207 1.435a5.8 5.8 0 0 1-2.137.083 1.68 1.68 0 0 1-1.235-1.36c-.089-.545-.114-2.394-.114-2.394v-4.445h-1.177v-1.247h1.178v-3.353h1.64v3.353h1.592v1.247h-1.592v4.981a4.9 4.9 0 0 0 .168 1.484s.29.45 1.468.215" data-name="パス 1897"/><path d="M130.371 46.671a4.8 4.8 0 0 1-.168-1.484v-4.981h1.585v-1.247h-1.585v-2.881a10.6 10.6 0 0 1-1.642.418v2.463h-1.18v1.247h1.18v4.446s.026 1.849.111 2.394a1.69 1.69 0 0 0 1.233 1.356 5.8 5.8 0 0 0 2.145-.081l-.211-1.437c-1.172.235-1.468-.215-1.468-.215" data-name="パス 1898"/></g></svg>