<svg xmlns="http://www.w3.org/2000/svg" width="165.364" height="33.924"><g fill="#8e8e8e" data-name="グループ 29"><path d="M58.442 33.05h6.83L55.972.917h-6.1l-9.31 32.133h6.834l1.553-5.878h7.931Zm-7.78-12.335 2.248-8.5 2.259 8.5Z" data-name="パス 1854"/><path d="M127.091 18.993h7.613v-6.467h-7.613V7.372h7.613V.915h-14.073V33.05h14.1v-6.464h-7.641Z" data-name="パス 1855"/><path d="M79.558.915h-6.461v32.157h14.1v-6.451h-7.641Z" data-name="パス 1856"/><path d="M102.647.915h-6.463v32.157h14.1v-6.451h-7.637Z" data-name="パス 1857"/><path d="m158.304.945-4.442 10.034L149.42.945h-7.062l8.258 18.66v13.44h6.457V19.676l8.29-18.731Z" data-name="パス 1858"/><path d="m33.913 16.193-.03-.405H16.542v6.5h9.413a10.452 10.452 0 1 1-1.592-12.73 10.6 10.6 0 0 1 1.658 2.171l.217.375 5.624-3.288-.223-.363a16.6 16.6 0 0 0-2.684-3.489A16.961 16.961 0 1 0 4.967 28.948a16.98 16.98 0 0 0 28.205-6.97 17 17 0 0 0 .754-5.022c0-.231-.008-.478-.014-.766" data-name="パス 1859"/></g></svg>